<svg width="31" height="37" viewBox="0 0 31 37" fill="none" xmlns="http://www.w3.org/2000/svg">
<g clip-path="url(#clip0_2202_564)">
<path d="M30.0447 10.6606C30.5298 10.8349 30.6529 11.2386 30.6521 11.7443C30.6444 16.3707 30.6397 20.9971 30.6382 25.6235C30.6393 25.6433 30.6416 25.663 30.6451 25.6825C30.5952 25.7813 30.647 25.8961 30.6038 25.996C30.5021 26.54 30.334 27.0699 30.1033 27.574C29.6797 28.4244 29.0165 29.1355 28.1936 29.6219C26.8636 30.4463 25.5398 31.2826 24.2139 32.1149C22.8242 32.9872 21.4347 33.8597 20.0453 34.7326C19.155 35.2894 18.2812 35.8776 17.3672 36.3891C17.2418 36.4163 17.1117 36.414 16.9874 36.3822C16.8526 36.3408 16.7329 36.2615 16.6429 36.1539C16.553 36.0463 16.4968 35.9151 16.4811 35.7764C16.4454 35.3902 16.4678 35.003 16.4667 34.6163C16.4632 33.3548 16.4659 32.0934 16.4643 30.8319C16.4781 30.7236 16.4706 30.6137 16.4425 30.5082C16.4479 30.3996 16.4584 30.2911 16.4582 30.1825C16.4518 26.7145 16.4499 23.2465 16.4305 19.7786C16.4104 19.5832 16.449 19.3863 16.5415 19.2126C16.634 19.0388 16.7762 18.8959 16.9505 18.8017C20.8094 16.365 24.6538 13.901 28.5007 11.4418C28.8968 11.138 29.3236 10.8758 29.7744 10.6593C29.8624 10.6314 29.957 10.6318 30.0447 10.6606Z" fill="#FEB000"/>
<path d="M2.16654 11.5127C2.30903 11.6392 2.47303 11.7398 2.65097 11.8097C2.74357 11.823 2.83198 11.8568 2.90967 11.9083C2.98736 11.9599 3.05237 12.0281 3.09991 12.1078C3.12379 12.1411 3.15457 12.1689 3.19018 12.1895C3.2258 12.2101 3.26544 12.223 3.30647 12.2272C3.56909 12.2987 3.80226 12.4502 3.97284 12.6602C4.03789 12.7462 4.13359 12.8045 4.24051 12.8232C4.33324 12.8373 4.42167 12.8715 4.49953 12.9233C4.57739 12.975 4.64276 13.0431 4.69099 13.1227C4.8334 13.2495 4.99765 13.3501 5.17595 13.4197C5.2684 13.4333 5.35662 13.4672 5.43417 13.5188C5.51171 13.5705 5.57665 13.6385 5.62424 13.7181C5.64806 13.7516 5.67895 13.7796 5.71477 13.8002C5.75059 13.8207 5.79049 13.8333 5.83172 13.8372C5.99499 13.9139 6.18859 13.9368 6.28226 14.137C6.42475 14.2634 6.58871 14.364 6.76658 14.4339C6.85927 14.4471 6.94777 14.4808 7.02549 14.5325C7.10322 14.5841 7.16818 14.6525 7.21554 14.7324C7.39695 14.8823 7.59764 15.0079 7.81239 15.1058C7.87145 15.1037 7.92969 15.1198 7.97914 15.1518C8.02858 15.1838 8.06681 15.2301 8.08858 15.2845C8.15357 15.3705 8.2493 15.4288 8.35624 15.4474C8.44897 15.4615 8.53741 15.4957 8.61527 15.5474C8.69313 15.5992 8.7585 15.6673 8.80673 15.7469C8.94899 15.8737 9.113 15.9744 9.29104 16.0442C9.38365 16.0575 9.47205 16.0912 9.54974 16.1428C9.62744 16.1944 9.69244 16.2626 9.73998 16.3423C9.76394 16.3755 9.79474 16.4033 9.83034 16.4238C9.86594 16.4444 9.90554 16.4573 9.94654 16.4617C10.2089 16.5334 10.442 16.6847 10.6131 16.8942C10.6779 16.9807 10.7739 17.0392 10.8813 17.0574C10.9738 17.0719 11.062 17.1062 11.1397 17.1579C11.2174 17.2096 11.2828 17.2775 11.3312 17.3568C11.5126 17.5067 11.7133 17.6322 11.9281 17.7299C11.9872 17.7279 12.0455 17.744 12.095 17.776C12.1444 17.8081 12.1826 17.8545 12.2043 17.9089C12.2694 17.9947 12.365 18.0529 12.4718 18.0717C12.5647 18.0856 12.6532 18.1197 12.7311 18.1715C12.809 18.2234 12.8743 18.2917 12.9223 18.3715C13.0649 18.4979 13.2289 18.5984 13.4068 18.6683C13.5001 18.6808 13.5892 18.7147 13.6668 18.7674C13.7445 18.8201 13.8085 18.89 13.8539 18.9716C14.046 19.1959 14.144 19.4843 14.1277 19.7778C14.1278 21.1162 14.1361 22.4546 14.1414 23.7929C14.1619 23.8798 14.1676 23.9695 14.1582 24.0583C14.1589 27.8964 14.1588 31.7346 14.1581 35.5728C14.169 35.6614 14.1624 35.7512 14.1386 35.8372C14.0396 36.0706 13.8624 36.2633 13.6369 36.3829C13.512 36.4163 13.3804 36.4164 13.2555 36.3831C12.8803 36.2331 12.5281 36.0323 12.2089 35.7864C11.3288 35.2639 10.4682 34.7026 9.60163 34.1535C8.70396 33.5846 7.81087 33.0072 6.91135 32.4418C5.80085 31.7439 4.68169 31.0622 3.57427 30.3586C2.94144 29.991 2.32927 29.5897 1.74048 29.1564C1.14158 28.659 0.677837 28.0216 0.391391 27.3019C0.181692 26.8319 0.0556194 26.3296 0.0187263 25.8172C-0.00073588 25.7301 -0.00611932 25.6404 0.00277592 25.5516C0.00214787 20.879 0.00216615 16.2065 0.00283075 11.534C-0.00686475 11.4453 -0.0010034 11.3555 0.0201568 11.2688C0.0420079 11.1613 0.0897061 11.0605 0.159221 10.9751C0.228735 10.8897 0.318024 10.822 0.419542 10.7779C0.521059 10.7338 0.631823 10.7145 0.742473 10.7217C0.853124 10.7288 0.960409 10.7622 1.05526 10.819C1.30229 10.9611 1.54042 11.1215 1.78256 11.2737C1.86285 11.2736 1.9415 11.2961 2.00945 11.3384C2.07739 11.3807 2.13185 11.4411 2.16654 11.5127Z" fill="#FE005F"/>
<path d="M11.4442 14.5547L10.9572 14.2216C10.7563 14.2385 10.6609 14.0441 10.5113 13.9583L10.1385 13.7055C9.92177 13.6477 9.72702 13.5282 9.57842 13.3619L9.20449 13.1096C9.02305 13.0773 8.8615 12.9763 8.75417 12.8281L8.46188 12.6434C8.21453 12.5664 7.99306 12.4242 7.82125 12.2321C7.70287 12.1774 7.59436 12.104 7.50004 12.0146C7.29892 12.0319 7.2037 11.8373 7.05406 11.7515L6.56687 11.4193C6.36634 11.4349 6.27079 11.2412 6.12117 11.1553L5.74745 10.9028C5.56592 10.8707 5.40425 10.7698 5.29693 10.6215L4.70044 10.2289C4.63191 10.2244 4.5655 10.2035 4.50691 10.168C4.44832 10.1326 4.39928 10.0836 4.36399 10.0254C4.24565 9.97061 4.13716 9.89708 4.04283 9.80769C3.8416 9.82543 3.74645 9.63054 3.5968 9.54489L3.10977 9.21185C2.90884 9.22865 2.81351 9.0343 2.66389 8.94848C2.53026 8.85579 2.3918 8.77008 2.24911 8.69171C2.13928 8.6254 2.04822 8.53268 1.9844 8.42218C1.92058 8.31169 1.88609 8.18702 1.88412 8.05978C1.88216 7.93255 1.91279 7.8069 1.97317 7.69453C2.03355 7.58216 2.12171 7.48673 2.22943 7.41713C3.3263 6.73277 4.42548 6.05277 5.52124 5.36632C7.01322 4.43165 8.504 3.49469 9.99357 2.55543C11.0814 1.87135 12.1569 1.16244 13.2626 0.514248C13.7229 0.233639 14.2483 0.0745489 14.7886 0.0522003C14.9312 -0.0173013 15.0878 0.0643163 15.2312 0.00391889C15.2392 0.0009851 15.2476 -0.000324974 15.2561 6.81891e-05C15.2645 0.000461352 15.2728 0.00254955 15.2804 0.00620603C15.3159 0.0537846 15.3413 0.107938 15.3552 0.165439C15.369 0.22294 15.371 0.282612 15.3611 0.340898C15.3622 4.61169 15.3621 8.88247 15.3608 13.1533C15.361 13.2026 15.3579 13.252 15.3514 13.3009C15.3476 13.3342 15.3358 13.3661 15.3169 13.3939C15.298 13.4217 15.2726 13.4446 15.2429 13.4607C14.2846 13.9315 13.4215 14.5861 12.5045 15.1366C12.4884 15.1458 12.4717 15.1539 12.4545 15.161C12.3428 15.1895 12.2714 15.1253 12.2114 15.0351C12.093 14.9805 11.9845 14.907 11.8903 14.8175C11.689 14.8352 11.5939 14.6403 11.4442 14.5547Z" fill="#0080FC"/>
<path d="M15.3431 0.00517101L15.7066 0.000488281C15.7983 0.0535067 15.9038 -0.000768662 15.9965 0.0445503C17.1201 0.240027 18.0213 0.9617 18.9759 1.54918C20.5811 2.53707 22.1739 3.54883 23.7711 4.55221C25.3054 5.51612 26.8397 6.48012 28.3739 7.44422C28.5057 7.5384 28.6114 7.6639 28.6812 7.80914C28.712 7.94551 28.7123 8.08688 28.6823 8.2234C28.5828 8.42847 28.4201 8.59706 28.2177 8.70494C24.9433 10.7918 21.67 12.8805 18.3977 14.9711C18.3117 15.0259 18.2259 15.0808 18.14 15.1358C17.4682 14.7765 16.843 14.3282 16.1915 13.9301C15.9603 13.7738 15.7187 13.6332 15.4684 13.509C15.3805 13.4703 15.2978 13.4288 15.3126 13.2994C15.3134 8.98382 15.3141 4.66884 15.3145 0.354449C15.2942 0.237498 15.304 0.117361 15.3431 0.00517101Z" fill="#006EC4"/>
<path d="M15.3344 13.4088C15.5369 13.4365 15.7272 13.5205 15.8833 13.6511C16.5853 14.0888 17.2857 14.5296 17.9843 14.9736C18.0425 15.0214 18.0948 15.0757 18.1401 15.1356C17.4386 15.5885 16.7371 16.0415 16.0357 16.4948C15.9666 16.5395 15.9008 16.5906 15.8335 16.6388C15.7956 16.708 15.7404 16.7664 15.6732 16.8085C15.6059 16.8506 15.5289 16.8749 15.4495 16.8792C15.2354 17.0161 15.066 16.8674 14.8933 16.7694C14.7269 16.675 14.5685 16.5642 14.4066 16.4606C14.2397 16.453 14.1527 16.2956 14.0228 16.2186L13.5908 15.9144C13.4095 15.8794 13.2494 15.7756 13.1445 15.6253L12.5469 15.2448C12.5173 15.2442 12.489 15.2326 12.4678 15.2122C12.4465 15.1919 12.4338 15.1643 12.4324 15.135C12.7816 14.8609 13.1513 14.6133 13.5382 14.3943C13.9483 14.1229 14.3647 13.8626 14.7808 13.6021C14.9255 13.4876 15.1018 13.4191 15.2865 13.4056C15.3039 13.3821 15.3198 13.3843 15.3344 13.4088Z" fill="#00539A"/>
</g>
<defs>
<clipPath id="clip0_2202_564">
<rect width="30.6521" height="36.4078" fill="white"/>
</clipPath>
</defs>
</svg>
